<?xml version="1.0" encoding="UTF-8" standalone="no"?>
<!DOCTYPE svg PUBLIC "-//W3C//DTD SVG 1.1//EN" "http://www.w3.org/Graphics/SVG/1.1/DTD/svg11.dtd">
<svg width="100%" height="100%" viewBox="0 0 318 54" version="1.1" xmlns="http://www.w3.org/2000/svg" xmlns:xlink="http://www.w3.org/1999/xlink" xml:space="preserve" xmlns:serif="http://www.serif.com/" style="fill-rule:evenodd;clip-rule:evenodd;stroke-linejoin:round;stroke-miterlimit:2;">
    <g transform="matrix(1,0,0,1,-2100.118309,-2776.890794)">
        <g transform="matrix(1,0,0,1,1281.419409,2292.982294)">
            <g transform="matrix(1,0,0,1,820.6099,532.3185)">
                <path d="M0,-34.359L0,-38.47L22.463,-38.47L4.674,-0.058L21.566,-0.058L21.566,4.111L-1.911,4.111L16.034,-34.359L0,-34.359Z" style="fill:white;fill-rule:nonzero;"/>
            </g>
            <g transform="matrix(1,0,0,1,850.7432,536.4299)">
                <path d="M0,-42.581L24.402,-42.581L24.402,-38.413L4.256,-38.413L4.256,-25.069L24.228,-25.069L24.228,-20.9L4.256,-20.9L4.256,-4.169L24.228,-4.169L24.228,0L0,0L0,-42.581Z" style="fill:white;fill-rule:nonzero;"/>
            </g>
            <g transform="matrix(1,0,0,1,878.2721,532.2617)">
                <path d="M0,-34.245L0,-38.413L23.331,-38.413L23.331,-34.245L13.836,-34.245L13.836,4.168L9.494,4.168L9.494,-34.245L0,-34.245Z" style="fill:white;fill-rule:nonzero;"/>
            </g>
            <g transform="matrix(1,0,0,1,929.7688,530.6413)">
                <path d="M0,-31.003L-6.003,-25.706C-8.11,-28.639 -10.256,-30.106 -12.44,-30.106C-13.505,-30.106 -14.374,-29.822 -15.05,-29.252C-15.727,-28.682 -16.065,-28.041 -16.065,-27.327C-16.065,-26.612 -15.824,-25.937 -15.341,-25.301C-14.684,-24.451 -12.703,-22.627 -9.396,-19.83C-6.303,-17.244 -4.428,-15.613 -3.771,-14.938C-2.128,-13.278 -0.963,-11.691 -0.276,-10.175C0.409,-8.66 0.752,-7.007 0.752,-5.212C0.752,-1.718 -0.455,1.166 -2.869,3.443C-5.284,5.722 -8.434,6.86 -12.316,6.86C-15.35,6.86 -17.991,6.115 -20.242,4.63C-22.492,3.144 -24.419,0.81 -26.022,-2.374L-19.211,-6.485C-17.162,-2.721 -14.804,-0.84 -12.136,-0.84C-10.746,-0.84 -9.576,-1.247 -8.628,-2.056C-7.682,-2.867 -7.208,-3.802 -7.208,-4.865C-7.208,-5.829 -7.565,-6.794 -8.281,-7.759C-8.996,-8.723 -10.572,-10.199 -13.007,-12.188C-17.647,-15.97 -20.644,-18.889 -21.997,-20.944C-23.35,-22.999 -24.026,-25.049 -24.026,-27.096C-24.026,-30.048 -22.901,-32.581 -20.649,-34.695C-18.399,-36.807 -15.621,-37.863 -12.317,-37.863C-10.193,-37.863 -8.168,-37.372 -6.245,-36.386C-4.323,-35.402 -2.242,-33.608 0,-31.003" style="fill:white;fill-rule:nonzero;"/>
            </g>
            <g transform="matrix(1,0,0,1,934.0532,536.4299)">
                <path d="M0,-42.581L23.534,-42.581L23.534,-34.592L15.775,-34.592L15.775,0L7.555,0L7.555,-34.592L0,-34.592L0,-42.581Z" style="fill:white;fill-rule:nonzero;"/>
            </g>
            <g transform="matrix(1,0,0,1,962.855,537.5019)">
                <path d="M0,-43.653L8.134,-43.653L8.134,-16.118C8.134,-13.746 8.341,-12.068 8.756,-11.085C9.171,-10.103 9.856,-9.317 10.812,-8.727C11.767,-8.139 12.919,-7.847 14.271,-7.847C15.699,-7.847 16.93,-8.173 17.961,-8.829C18.994,-9.485 19.71,-10.318 20.105,-11.33C20.5,-12.342 20.697,-14.276 20.697,-17.13L20.697,-43.653L28.831,-43.653L28.831,-18.267C28.831,-13.982 28.591,-11.01 28.109,-9.351C27.624,-7.691 26.704,-6.089 25.344,-4.547C23.984,-3.001 22.416,-1.859 20.64,-1.116C18.864,-0.373 16.8,0 14.445,0C11.357,0 8.669,-0.711 6.382,-2.129C4.095,-3.547 2.46,-5.323 1.477,-7.456C0.493,-9.586 0,-13.19 0,-18.267L0,-43.653Z" style="fill:white;fill-rule:nonzero;"/>
            </g>
            <g transform="matrix(1,0,0,1,1009.1714,528.6135)">
                <path d="M0,-26.949L0,-0.087L3.764,-0.087C7.469,-0.087 10.155,-0.51 11.826,-1.361C13.494,-2.211 14.859,-3.642 15.921,-5.651C16.982,-7.66 17.512,-10.132 17.512,-13.068C17.512,-17.588 16.248,-21.096 13.721,-23.588C11.444,-25.828 7.787,-26.949 2.749,-26.949L0,-26.949ZM-8.048,-34.765L1.556,-34.765C7.744,-34.765 12.342,-33.998 15.35,-32.463C18.358,-30.929 20.835,-28.434 22.782,-24.981C24.733,-21.526 25.706,-17.492 25.706,-12.881C25.706,-9.6 25.16,-6.585 24.072,-3.836C22.981,-1.084 21.477,1.197 19.558,3.012C17.64,4.824 15.563,6.079 13.328,6.774C11.09,7.468 7.215,7.816 1.7,7.816L-8.048,7.816L-8.048,-34.765Z" style="fill:white;fill-rule:nonzero;"/>
            </g>
            <g transform="matrix(1,0,0,1,0,-49.722)">
                <rect x="1042.025" y="543.571" width="8.048" height="42.58" style="fill:white;"/>
            </g>
            <g transform="matrix(1,0,0,1,1076.6128,529.57)">
                <path d="M0,-28.861C-3.941,-28.861 -7.252,-27.491 -9.938,-24.75C-12.624,-22.01 -13.965,-18.526 -13.965,-14.3C-13.965,-9.592 -12.276,-5.866 -8.896,-3.126C-6.267,-0.985 -3.255,0.085 0.146,0.085C3.991,0.085 7.263,-1.302 9.969,-4.082C12.674,-6.861 14.027,-10.287 14.027,-14.359C14.027,-18.411 12.665,-21.841 9.94,-24.649C7.215,-27.456 3.904,-28.861 0,-28.861M0.087,-36.792C6.111,-36.792 11.293,-34.611 15.627,-30.25C19.963,-25.889 22.131,-20.573 22.131,-14.3C22.131,-8.086 19.992,-2.827 15.713,1.475C11.437,5.778 6.247,7.931 0.146,7.931C-6.247,7.931 -11.556,5.721 -15.785,1.301C-20.015,-3.117 -22.129,-8.366 -22.129,-14.446C-22.129,-18.516 -21.144,-22.261 -19.174,-25.677C-17.204,-29.093 -14.495,-31.799 -11.049,-33.796C-7.602,-35.793 -3.89,-36.792 0.087,-36.792" style="fill:white;fill-rule:nonzero;"/>
            </g>
            <g transform="matrix(1,0,0,1,1124.4106,530.6413)">
                <path d="M0,-31.003L-6.002,-25.706C-8.111,-28.639 -10.256,-30.106 -12.44,-30.106C-13.503,-30.106 -14.374,-29.822 -15.05,-29.252C-15.727,-28.682 -16.065,-28.041 -16.065,-27.327C-16.065,-26.612 -15.823,-25.937 -15.341,-25.301C-14.683,-24.451 -12.701,-22.627 -9.396,-19.83C-6.304,-17.244 -4.43,-15.613 -3.771,-14.938C-2.128,-13.278 -0.965,-11.691 -0.277,-10.175C0.409,-8.66 0.752,-7.007 0.752,-5.212C0.752,-1.718 -0.455,1.166 -2.871,3.443C-5.285,5.722 -8.434,6.86 -12.317,6.86C-15.35,6.86 -17.992,6.115 -20.241,4.63C-22.492,3.144 -24.419,0.81 -26.024,-2.374L-19.211,-6.485C-17.162,-2.721 -14.804,-0.84 -12.136,-0.84C-10.745,-0.84 -9.576,-1.247 -8.628,-2.056C-7.682,-2.867 -7.208,-3.802 -7.208,-4.865C-7.208,-5.829 -7.565,-6.794 -8.281,-7.759C-8.996,-8.723 -10.571,-10.199 -13.007,-12.188C-17.647,-15.97 -20.644,-18.889 -21.997,-20.944C-23.35,-22.999 -24.026,-25.049 -24.026,-27.096C-24.026,-30.048 -22.902,-32.581 -20.651,-34.695C-18.399,-36.807 -15.622,-37.863 -12.317,-37.863C-10.191,-37.863 -8.168,-37.372 -6.247,-36.386C-4.324,-35.402 -2.242,-33.608 0,-31.003" style="fill:white;fill-rule:nonzero;"/>
            </g>
            <g transform="matrix(1,0,0,1,1129.2366,489.711)">
                <path d="M0,-0.282L0.682,-0.282C1.393,-0.282 1.845,-0.673 1.845,-1.262C1.845,-1.928 1.362,-2.219 0.658,-2.226C0.336,-2.226 0.107,-2.196 0,-2.166L0,-0.282ZM-0.666,-2.632C-0.33,-2.701 0.153,-2.74 0.613,-2.74C1.324,-2.74 1.784,-2.609 2.105,-2.318C2.366,-2.089 2.511,-1.736 2.511,-1.339C2.511,-0.657 2.082,-0.205 1.539,-0.022L1.539,0.001C1.936,0.139 2.174,0.506 2.297,1.042C2.465,1.762 2.588,2.259 2.694,2.458L2.006,2.458C1.922,2.313 1.806,1.869 1.661,1.226C1.508,0.514 1.232,0.246 0.628,0.223L0,0.223L0,2.458L-0.666,2.458L-0.666,-2.632Z" style="fill:white;fill-rule:nonzero;"/>
            </g>
            <g transform="matrix(1,0,0,1,1130.2512,494.1965)">
                <path d="M0,-9.252C-2.551,-9.252 -4.626,-7.177 -4.626,-4.627C-4.626,-2.075 -2.551,0 0,0C2.551,0 4.625,-2.075 4.625,-4.627C4.625,-7.177 2.551,-9.252 0,-9.252M0,1.036C-3.122,1.036 -5.662,-1.504 -5.662,-4.627C-5.662,-7.748 -3.122,-10.288 0,-10.288C3.122,-10.288 5.661,-7.748 5.661,-4.627C5.661,-1.504 3.122,1.036 0,1.036" style="fill:white;fill-rule:nonzero;"/>
            </g>
        </g>
    </g>
</svg>
